<?xml version="1.0" encoding="UTF-8"?>
<!-- Created with Inkscape (http://www.inkscape.org/) -->
<svg width="100" height="100" version="1.1" viewBox="0 0 100 100" xml:space="preserve" xmlns="http://www.w3.org/2000/svg" xmlns:xlink="http://www.w3.org/1999/xlink"><defs><linearGradient id="linearGradient19"><stop stop-color="#51bcfe" offset="0"/><stop stop-color="#6c69ff" offset="1"/></linearGradient><linearGradient id="linearGradient10"><stop stop-color="#d0b1fc" offset="0"/><stop stop-color="#7d61ef" offset="1"/></linearGradient><linearGradient id="linearGradient11" x1="120.21" x2="271.29" y1="123.48" y2="163.79" gradientUnits="userSpaceOnUse" xlink:href="#linearGradient10"/><linearGradient id="linearGradient13" x1="451.04" x2="349.81" y1="217.92" y2="321.86" gradientUnits="userSpaceOnUse" xlink:href="#linearGradient10"/><linearGradient id="linearGradient15" x1="192.87" x2="162.95" y1="446.56" y2="317.16" gradientUnits="userSpaceOnUse" xlink:href="#linearGradient10"/><linearGradient id="linearGradient18" x1="311.32" x2="349.99" y1="82.026" y2="205.77" gradientUnits="userSpaceOnUse" xlink:href="#linearGradient19"/><linearGradient id="linearGradient28" x1="59.94" x2="158.82" y1="308.59" y2="224.44" gradientUnits="userSpaceOnUse" xlink:href="#linearGradient19"/><linearGradient id="linearGradient29" x1="391.48" x2="250.52" y1="411.47" y2="369.75" gradientUnits="userSpaceOnUse" xlink:href="#linearGradient19"/></defs><g transform="translate(-6.1998 -89)"><g transform="matrix(.20205 0 0 .20393 4.9471 84.959)" fill-rule="evenodd" shape-rendering="auto"><path d="m156.72 264.8 122.2 211.68-56.157 0.527-32.624-56.87-32.856 56.566-27.903-0.011-14.29-24.69 46.81-80.49-33.23-57.826z" color="#000000" fill="url(#linearGradient15)" image-rendering="auto" style="isolation:auto;mix-blend-mode:normal" data-darkreader-inline-color="" data-darkreader-inline-stroke=""/><path d="m204.8 347.35 244.41 0.0118-27.622 48.897-65.563-0.18179 32.56 56.737-13.961 24.159-28.527 0.0305-46.301-80.784-66.694-0.13497z" color="#000000" fill="url(#linearGradient29)" image-rendering="auto" style="isolation:auto;mix-blend-mode:normal" data-darkreader-inline-color="" data-darkreader-inline-stroke=""/><path d="m303.96 347.08 122.22-211.66 28.535 48.37-32.939 56.688 65.416 0.17117 13.942 24.17-14.237 24.72-93.111-0.29365-33.464 57.691z" color="#000000" fill="url(#linearGradient13)" image-rendering="auto" style="isolation:auto;mix-blend-mode:normal" data-darkreader-inline-color="" data-darkreader-inline-stroke=""/><path d="m203.37 182.96-122.22 211.66-28.535-48.37 32.939-56.688-65.416-0.17117-13.942-24.17 14.237-24.72 93.111 0.29365 33.464-57.691z" color="#000000" fill="url(#linearGradient28)" image-rendering="auto" style="isolation:auto;mix-blend-mode:normal" data-darkreader-inline-color="" data-darkreader-inline-stroke=""/><path d="m350.78 265.2-122.2-211.68 56.157-0.527 32.624 56.87 32.856-56.566 27.903 0.011 14.29 24.69-46.81 80.49 33.23 57.826z" color="#000000" fill="url(#linearGradient18)" image-rendering="auto" style="isolation:auto;mix-blend-mode:normal" data-darkreader-inline-color="" data-darkreader-inline-stroke=""/><path d="m302.4 182.65-244.41-0.0118 27.622-48.897 65.563 0.18179-32.56-56.737 13.961-24.159 28.527-0.0305 46.301 80.784 66.694 0.13497z" color="#000000" fill="url(#linearGradient11)" image-rendering="auto" style="isolation:auto;mix-blend-mode:normal" data-darkreader-inline-color="" data-darkreader-inline-stroke=""/></g></g></svg>
